<?xml version="1.0" encoding="utf-8"?><svg width="260" height="213" viewBox="0 0 260 213" xmlns="http://www.w3.org/2000/svg" xmlns:xlink="http://www.w3.org/1999/xlink"><svg id="accessibility" viewBox="-1 -1 50 50" width="50" height="50" x="209.07" xmlns="http://www.w3.org/2000/svg"><style>.ast0{fill:none}.ast1{fill:#d59541}</style><path class="ast0" d="M0 0h48v48H0V0z"/><path class="ast1" d="M24 4c2.2 0 4 1.8 4 4s-1.8 4-4 4-4-1.8-4-4 1.8-4 4-4zm18 14H30v26h-4V32h-4v12h-4V18H6v-4h36v4z"/></svg><svg id="assistant" viewBox="-1 -1 50 50" width="50" height="50" y="118.4" xmlns="http://www.w3.org/2000/svg"><style>.bst0{fill:none}.bst1{fill:#d59541}</style><path class="bst0" d="M0 0h48v48H0V0z"/><path class="bst1" d="M38 4H10C7.8 4 6 5.8 6 8v28c0 2.2 1.8 4 4 4h8l6 6 6-6h8c2.2 0 4-1.8 4-4V8c0-2.2-1.8-4-4-4zM27.8 25.8L24 34l-3.8-8.2L12 22l8.2-3.8L24 10l3.8 8.2L36 22l-8.2 3.8z"/></svg><svg id="comment" data-name="Layer 1" width="66" height="66" viewBox="-1 -1 66 66" y="52.4" xmlns="http://www.w3.org/2000/svg"><defs><style>.ccls-1{fill:#2f5572}</style></defs><title>comment</title><path class="ccls-1" d="M.72.08A.67.67 0 0 0 0 .8v46.48a.72.72 0 0 0 .72.72H48l16 16V.72a.67.67 0 0 0-.72-.72H.8z"/></svg><svg id="extension" viewBox="-1 -1 50 50" width="50" height="50" x="50" y="118.4" xmlns="http://www.w3.org/2000/svg"><style>.dst0{fill:none}.dst1{fill:#d59541}</style><path class="dst0" d="M0 0h48v48H0V0z"/><path class="dst1" d="M41 22h-3v-8c0-2.2-1.8-4-4-4h-8V7c0-2.8-2.2-5-5-5s-5 2.2-5 5v3H8c-2.2 0-4 1.8-4 4v7.6h3c3 0 5.4 2.4 5.4 5.4S10 32.4 7 32.4H4V40c0 2.2 1.8 4 4 4h7.6v-3c0-3 2.4-5.4 5.4-5.4s5.4 2.4 5.4 5.4v3H34c2.2 0 4-1.8 4-4v-8h3c2.8 0 5-2.2 5-5s-2.2-5-5-5z"/></svg><svg id="facebook" data-name="Layer 1" width="23.23" height="44.01" viewBox="-1 -1 23.23 44.01" y="168.4" xmlns="http://www.w3.org/2000/svg"><defs><style>.ecls-1{fill:#fff}</style></defs><title>facebook</title><path class="ecls-1" d="M21.23.31V7H17.4a3.55 3.55 0 0 0-2.85.91 4.26 4.26 0 0 0-.74 2.72v4.77H21l-1 7.47h-6.19V42H6.27V22.85H0v-7.47h6.27V9.85q0-4.69 2.55-7.28A9 9 0 0 1 15.63 0a39.57 39.57 0 0 1 5.6.31z"/></svg><svg id="healing" viewBox="-1 -1 50 50" width="50" height="50" x="100" y="118.4" xmlns="http://www.w3.org/2000/svg"><style>.fst0{fill:none}.fst1{fill:#d59541}</style><path class="fst0" d="M0 0h48v48H0V0z"/><path class="fst1" d="M35.5 24l8-8c.8-.8.8-2 0-2.8l-8.7-8.7c-.8-.8-2-.8-2.8 0l-8 8-8-8c-.4-.3-.9-.5-1.4-.5-.5 0-1 .2-1.4.6l-8.7 8.7c-.8.8-.8 2 0 2.8l8 8-8 8c-.8.8-.8 2 0 2.8l8.7 8.7c.8.8 2 .8 2.8 0l8-8 8 8c.4.4.9.6 1.4.6.5 0 1-.2 1.4-.6l8.7-8.7c.8-.8.8-2 0-2.8l-8-8.1zM24 18c1.1 0 2 .9 2 2s-.9 2-2 2-2-.9-2-2 .9-2 2-2zm-9.4 3.9l-7.3-7.2 7.3-7.3 7.2 7.2-7.2 7.3zM20 26c-1.1 0-2-.9-2-2s.9-2 2-2 2 .9 2 2-.9 2-2 2zm4 4c-1.1 0-2-.9-2-2s.9-2 2-2 2 .9 2 2-.9 2-2 2zm4-8c1.1 0 2 .9 2 2s-.9 2-2 2-2-.9-2-2 .9-2 2-2zm5.3 18.7L26 33.5l7.3-7.3 7.2 7.2-7.2 7.3z"/></svg><svg id="healthcare" viewBox="-1 -1 50 50" width="50" height="50" x="150" y="118.4" xmlns="http://www.w3.org/2000/svg"><style>.gst0{fill:none}.gst1{fill:#d59541}</style><path class="gst0" d="M0 0h48v48H0V0z"/><path class="gst1" d="M38 6H10c-2.2 0-4 1.8-4 4v28c0 2.2 1.8 4 4 4h28c2.2 0 4-1.8 4-4V10c0-2.2-1.8-4-4-4zm-2 22h-8v8h-8v-8h-8v-8h8v-8h8v8h8v8z"/></svg><svg id="instagram" data-name="Layer 1" width="44.01" height="44.01" viewBox="-1 -1 44.01 44.01" x="209.07" y="100" xmlns="http://www.w3.org/2000/svg"><defs><style>.hcls-1{fill:#fff}</style></defs><title>instagram</title><path class="hcls-1" d="M37.25 35.49V17.77h-3.69a11.77 11.77 0 0 1 .57 3.58 12.12 12.12 0 0 1-1.75 6.36 12.76 12.76 0 0 1-4.76 4.59 13.13 13.13 0 0 1-6.56 1.7 12.78 12.78 0 0 1-9.19-3.71 12 12 0 0 1-3.83-9 11.77 11.77 0 0 1 .49-3.56H4.68v17.76a1.63 1.63 0 0 0 1.6 1.67h29.3a1.63 1.63 0 0 0 1.17-.47 1.59 1.59 0 0 0 .5-1.2zm-7.77-14.57A7.75 7.75 0 0 0 27 15.14a8.28 8.28 0 0 0-6-2.4 8.25 8.25 0 0 0-5.91 2.39 7.75 7.75 0 0 0-2.47 5.78 7.75 7.75 0 0 0 2.47 5.79A8.25 8.25 0 0 0 21 29.1a8.28 8.28 0 0 0 6-2.4 7.75 7.75 0 0 0 2.48-5.78zm7.76-9.84V6.56a1.84 1.84 0 0 0-.54-1.31 1.8 1.8 0 0 0-1.31-.56h-4.78a1.8 1.8 0 0 0-1.31.56 1.84 1.84 0 0 0-.54 1.31v4.52A1.87 1.87 0 0 0 30.6 13h4.8a1.87 1.87 0 0 0 1.85-1.89zM42 5.39v31.23A5.41 5.41 0 0 1 36.62 42H5.39a5.19 5.19 0 0 1-3.8-1.59A5.19 5.19 0 0 1 0 36.62V5.39a5.19 5.19 0 0 1 1.59-3.8A5.19 5.19 0 0 1 5.39 0h31.23a5.19 5.19 0 0 1 3.8 1.59A5.19 5.19 0 0 1 42 5.39z"/></svg><svg id="mail" data-name="Layer 1" width="66" height="50" viewBox="-1 -1 66 50" x="66" y="52.4" xmlns="http://www.w3.org/2000/svg"><defs><style>.icls-1{fill:#2f5572}</style></defs><title>mail</title><path class="icls-1" d="M0 0v8l32 16L64 8V0H0zm0 16v32h64V16L32 32z"/></svg><svg viewBox="-1 -1 143.07 52.4" width="143.07" height="52.4" id="premier-physical-therapy" xmlns="http://www.w3.org/2000/svg"><defs><style>.jcls-1,.jcls-2{font-size:32px;font-family:Roboto-Regular,Roboto;fill:#fff}.jcls-2{font-size:15px;font-family:Roboto-Bold,Roboto;font-weight:700}.jcls-3,.jcls-4{letter-spacing:-.01em}.jcls-5{letter-spacing:-.03em}</style></defs><title>premier-physical-therapy</title><text class="jcls-1" transform="translate(3.57 27.38)" id="jPREMIER">PREMIER</text><text class="jcls-2" transform="translate(0 46.33)" id="jPHYSICAL_THERAPY" data-name="PHYSICAL THERAPY">P<tspan class="jcls-3" x="9.68" y="0">H</tspan><tspan class="jcls-4" x="20.07" y="0">Y</tspan><tspan x="29.22" y="0">SICAL</tspan><tspan class="jcls-5" x="70.85" y="0"> </tspan><tspan x="74.14" y="0">THERAPY</tspan></text></svg><svg id="star" data-name="Layer 1" width="66" height="66" viewBox="-1 -1 66 66" x="143.07" xmlns="http://www.w3.org/2000/svg"><defs><style>.kcls-1{fill:#d4953f}</style></defs><title>star</title><path class="kcls-1" d="M32 0l-8 24H0l20 16-8 24 20-16 20 16-8-24 20-16H40z"/></svg><svg id="twitter" data-name="Layer 1" width="53.78" height="44.06" viewBox="-1 -1 53.78 44.06" x="143.07" y="66" xmlns="http://www.w3.org/2000/svg"><defs><style>.lcls-1{fill:#fff}</style></defs><title>twitter</title><path class="lcls-1" d="M51.78 5a22.23 22.23 0 0 1-5.32 5.52v1.38a30.15 30.15 0 0 1-1.25 8.53 30.81 30.81 0 0 1-3.76 8.13 32.1 32.1 0 0 1-6.06 6.92 27 27 0 0 1-8.48 4.8 31 31 0 0 1-10.62 1.8A29.47 29.47 0 0 1 0 37.29a22.71 22.71 0 0 0 2.56.13 20.78 20.78 0 0 0 13.17-4.53 10.63 10.63 0 0 1-9.92-7.36 13.45 13.45 0 0 0 2 .16 11 11 0 0 0 2.79-.36 10.44 10.44 0 0 1-6.09-3.67 10.25 10.25 0 0 1-2.41-6.75v-.13a10.52 10.52 0 0 0 4.8 1.34 10.6 10.6 0 0 1-3.45-3.78 10.34 10.34 0 0 1-1.28-5.07 10.4 10.4 0 0 1 1.45-5.33 30.08 30.08 0 0 0 9.71 7.83A29.57 29.57 0 0 0 25.53 13a11.79 11.79 0 0 1-.26-2.43 10.23 10.23 0 0 1 3-7.48 10.64 10.64 0 0 1 15 0l.21.22A20.81 20.81 0 0 0 50.33.8a10.3 10.3 0 0 1-4.67 5.85A21.14 21.14 0 0 0 51.78 5z"/></svg><svg id="walk" viewBox="-1 -1 50 50" width="50" height="50" x="209.07" y="50" xmlns="http://www.w3.org/2000/svg"><style>.mst0{fill:none}.mst1{fill:#d59541}</style><path class="mst0" d="M0 0h48v48H0V0z"/><path class="mst1" d="M27 11c2.2 0 4-1.8 4-4s-1.8-4-4-4-4 1.8-4 4 1.8 4 4 4zm-7.4 6.8L14 46h4.2l3.6-16 4.2 4v12h4V31l-4.2-4 1.2-6c2.6 3 6.6 5 11 5v-4c-3.8 0-7-2-8.6-4.8l-2-3.2c-.8-1.2-2-2-3.4-2-.6 0-1 .2-1.6.2L12 16.6V26h4v-6.8l3.6-1.4"/></svg><svg id="youtube" data-name="Layer 1" width="36.75" height="44" viewBox="-1 -1 36.75 44" x="23.23" y="168.4" xmlns="http://www.w3.org/2000/svg"><defs><style>.ncls-1{fill:#fff}</style></defs><title>youtube</title><path class="ncls-1" d="M22.13 29.15v5q0 1.57-.91 1.57a1.5 1.5 0 0 1-1.06-.52v-7.11a1.5 1.5 0 0 1 1.06-.54q.91 0 .91 1.6zm7.92 0v1.08h-2.1v-1.06q0-1.59 1.06-1.59t1 1.59zM7.42 24h2.5v-2.14h-7.3v2.2h2.46V37.4h2.34V24zm6.75 13.4h2.09V25.82h-2.09v8.86a1.86 1.86 0 0 1-1.31 1 .48.48 0 0 1-.49-.47 6.52 6.52 0 0 1 0-.82v-8.57h-2.14V35a5.79 5.79 0 0 0 .19 1.71 1.26 1.26 0 0 0 1.36.87 3.43 3.43 0 0 0 2.39-1.43v1.25zm10.05-3.47v-4.6A8.33 8.33 0 0 0 24 27a1.63 1.63 0 0 0-1.67-1.31A2.82 2.82 0 0 0 20.16 27v-5.1h-2.08v15.5h2.09v-1.13a2.91 2.91 0 0 0 2.18 1.31A1.62 1.62 0 0 0 24 36.27a8.61 8.61 0 0 0 .22-2.35zm7.92-.24v-.3H30a11.6 11.6 0 0 1 0 1.43.9.9 0 0 1-.94.85q-1.08 0-1.08-1.61V32h4.19v-2.41a4.65 4.65 0 0 0-.66-2.72 3.2 3.2 0 0 0-5 0 4.52 4.52 0 0 0-.66 2.72v4.05a4.4 4.4 0 0 0 .66 2.72 3 3 0 0 0 2.49 1.2 2.9 2.9 0 0 0 3-2.51 10.31 10.31 0 0 0 .09-1.36zM17.89 12.3V7.38q0-1.61-1-1.61t-1 1.61v4.92q0 1.64 1 1.64t1-1.64zm16.85 17.6a40.6 40.6 0 0 1-.61 8.2 4.45 4.45 0 0 1-1.36 2.32 4.1 4.1 0 0 1-2.39 1.08 125.31 125.31 0 0 1-13 .49 125.31 125.31 0 0 1-13-.49A4.15 4.15 0 0 1 2 40.42 4.28 4.28 0 0 1 .63 38.1 39.76 39.76 0 0 1 0 29.9a40.6 40.6 0 0 1 .61-8.2A4.45 4.45 0 0 1 2 19.37a4.25 4.25 0 0 1 2.41-1.1q4.29-.47 13-.47t13 .47a4.4 4.4 0 0 1 3.75 3.42 39.76 39.76 0 0 1 .58 8.21zM11.35 0h2.39l-2.83 9.35v6.35H8.57V9.35a39.68 39.68 0 0 0-1.43-5Q6.27 2 5.61 0H8.1l1.67 6.16zM20 7.8v4.1a4.59 4.59 0 0 1-.66 2.76 2.88 2.88 0 0 1-2.49 1.19 2.9 2.9 0 0 1-2.46-1.19 4.68 4.68 0 0 1-.66-2.76V7.8a4.59 4.59 0 0 1 .66-2.74 2.9 2.9 0 0 1 2.46-1.19 2.88 2.88 0 0 1 2.49 1.19A4.59 4.59 0 0 1 20 7.8zM27.87 4v11.7h-2.13v-1.27a3.37 3.37 0 0 1-2.41 1.45A1.31 1.31 0 0 1 22 15a6 6 0 0 1-.19-1.76V4h2.13v8.6a6.14 6.14 0 0 0 0 .82.49.49 0 0 0 .47.52 1.87 1.87 0 0 0 1.31-1V4h2.16z"/></svg></svg>