<?xml version="1.0" encoding="utf-8"?>
<!-- Generator: Adobe Illustrator 21.0.2, SVG Export Plug-In . SVG Version: 6.00 Build 0)  -->
<svg version="1.1" id="Layer_1" xmlns="http://www.w3.org/2000/svg" xmlns:xlink="http://www.w3.org/1999/xlink" x="0px" y="0px"
	 viewBox="0 0 48 48" style="enable-background:new 0 0 48 48;" xml:space="preserve">
<style type="text/css">
	.st0{fill:none;}
	.st1{fill:#D59541;}
</style>
<path class="st0" d="M0,0h48v48H0V0z"/>
<path class="st1" d="M41,22h-3v-8c0-2.2-1.8-4-4-4h-8V7c0-2.8-2.2-5-5-5s-5,2.2-5,5v3H8c-2.2,0-4,1.8-4,4v7.6h3c3,0,5.4,2.4,5.4,5.4
	S10,32.4,7,32.4H4V40c0,2.2,1.8,4,4,4h7.6v-3c0-3,2.4-5.4,5.4-5.4s5.4,2.4,5.4,5.4v3H34c2.2,0,4-1.8,4-4v-8h3c2.8,0,5-2.2,5-5
	S43.8,22,41,22z"/>
</svg>
