<svg id="Layer_1" data-name="Layer 1" xmlns="http://www.w3.org/2000/svg" viewBox="0 0 160 160"><defs><style>.cls-1{fill:none;}.cls-2{fill:#002f6c;}</style></defs><title>standard-small</title><path class="cls-1" d="M56,56h48v48H56Z"/><path class="cls-2" d="M111.26,64,85,24.6a6,6,0,0,0-5-2.52,5.86,5.86,0,0,0-5,2.58L48.74,64H20a6,6,0,0,0-6,6,5.05,5.05,0,0,0,.24,1.62L29.48,127.2A11.93,11.93,0,0,0,41,136h78a12.06,12.06,0,0,0,11.58-8.76l15.24-55.62L146,70a6,6,0,0,0-6-6ZM62,64l18-26.4L98,64Zm18,48a12,12,0,1,1,12-12A12,12,0,0,1,80,112Z"/></svg>