<?xml version="1.0" encoding="utf-8"?>
<!-- Generator: Adobe Illustrator 21.0.2, SVG Export Plug-In . SVG Version: 6.00 Build 0)  -->
<svg version="1.1" id="Layer_1" xmlns="http://www.w3.org/2000/svg" xmlns:xlink="http://www.w3.org/1999/xlink" x="0px" y="0px"
	 viewBox="0 0 48 48" style="enable-background:new 0 0 48 48;" xml:space="preserve">
<style type="text/css">
	.st0{fill:none;}
	.st1{fill:#D59541;}
</style>
<path class="st0" d="M0,0h48v48H0V0z"/>
<path class="st1" d="M38,4H10C7.8,4,6,5.8,6,8v28c0,2.2,1.8,4,4,4h8l6,6l6-6h8c2.2,0,4-1.8,4-4V8C42,5.8,40.2,4,38,4z M27.8,25.8
	L24,34l-3.8-8.2L12,22l8.2-3.8L24,10l3.8,8.2L36,22L27.8,25.8z"/>
</svg>
