<?xml version="1.0" encoding="utf-8"?>
<!-- Generator: Adobe Illustrator 21.0.2, SVG Export Plug-In . SVG Version: 6.00 Build 0)  -->
<svg version="1.1" id="Layer_1" xmlns="http://www.w3.org/2000/svg" xmlns:xlink="http://www.w3.org/1999/xlink" x="0px" y="0px"
	 viewBox="0 0 48 48" style="enable-background:new 0 0 48 48;" xml:space="preserve">
<style type="text/css">
	.st0{fill:none;}
	.st1{fill:#D59541;}
</style>
<path class="st0" d="M0,0h48v48H0V0z"/>
<path class="st1" d="M35.5,24l8-8c0.8-0.8,0.8-2,0-2.8l-8.7-8.7c-0.8-0.8-2-0.8-2.8,0l-8,8l-8-8C15.6,4.2,15.1,4,14.6,4
	c-0.5,0-1,0.2-1.4,0.6l-8.7,8.7c-0.8,0.8-0.8,2,0,2.8l8,8l-8,8c-0.8,0.8-0.8,2,0,2.8l8.7,8.7c0.8,0.8,2,0.8,2.8,0l8-8l8,8
	c0.4,0.4,0.9,0.6,1.4,0.6c0.5,0,1-0.2,1.4-0.6l8.7-8.7c0.8-0.8,0.8-2,0-2.8C43.4,32,35.5,24,35.5,24z M24,18c1.1,0,2,0.9,2,2
	s-0.9,2-2,2s-2-0.9-2-2S22.9,18,24,18z M14.6,21.9l-7.3-7.2l7.3-7.3l7.2,7.2L14.6,21.9z M20,26c-1.1,0-2-0.9-2-2s0.9-2,2-2
	s2,0.9,2,2S21.1,26,20,26z M24,30c-1.1,0-2-0.9-2-2s0.9-2,2-2s2,0.9,2,2S25.1,30,24,30z M28,22c1.1,0,2,0.9,2,2s-0.9,2-2,2
	s-2-0.9-2-2S26.9,22,28,22z M33.3,40.7l-7.3-7.2l7.3-7.3l7.2,7.2L33.3,40.7z"/>
</svg>
