<?xml version="1.0" encoding="utf-8"?>
<!-- Generator: Adobe Illustrator 21.0.2, SVG Export Plug-In . SVG Version: 6.00 Build 0)  -->
<svg version="1.1" id="Layer_1" xmlns="http://www.w3.org/2000/svg" xmlns:xlink="http://www.w3.org/1999/xlink" x="0px" y="0px"
	 viewBox="0 0 48 48" style="enable-background:new 0 0 48 48;" xml:space="preserve">
<style type="text/css">
	.st0{fill:none;}
	.st1{fill:#D59541;}
</style>
<path class="st0" d="M0,0h48v48H0V0z"/>
<path class="st1" d="M27,11c2.2,0,4-1.8,4-4s-1.8-4-4-4s-4,1.8-4,4S24.8,11,27,11z M19.6,17.8L14,46h4.2l3.6-16l4.2,4v12h4V31
	l-4.2-4l1.2-6c2.6,3,6.6,5,11,5v-4c-3.8,0-7-2-8.6-4.8l-2-3.2c-0.8-1.2-2-2-3.4-2c-0.6,0-1,0.2-1.6,0.2L12,16.6V26h4v-6.8L19.6,17.8
	"/>
</svg>
